<?xml version="1.0" encoding="UTF-8" standalone="no"?>
<!-- Created with Inkscape (http://www.inkscape.org/) -->

<svg
   viewBox="0 0 55.141895 49.717735"
   version="1.1"
   id="svg1"
   xmlns="http://www.w3.org/2000/svg"
   >
  <defs
     id="defs1" />
  <g
     id="layer1"
     transform="translate(-2.0538483,-138.38049)">
    <path
       id="path1"
       style="display:inline;fill:#000000;stroke-width:0.0578426"
       d="m 30.028467,138.38728 c -2.001561,-0.0593 -3.573841,0.26699 -5.321421,1.10412 -1.31714,0.6309 -2.36086,1.39439 -3.4301,2.50905 -2.95073,3.07609 -4.10779,7.39656 -3.11985,11.64995 0.42225,1.81788 1.35342,3.69791 2.52976,5.10774 l 0.2317,0.27776 -0.76347,-0.34905 c -1.31453,-0.60089 -2.84984,-1.09176 -4.14412,-1.32477 -0.28043,-0.0505 -0.90798,-0.12281 -1.39462,-0.1608 -5.8350403,-0.45555 -11.1445703,4.20003 -12.3363103,10.81714 -0.19089,1.05997 -0.25119,1.94396 -0.2172,3.185 0.0634,2.31492 0.50008,4.15175 1.45403,6.11669 0.72864,1.50082 1.49073,2.58552 2.61618,3.72367 1.84678,1.86761 4.1425303,3.00003 6.6487503,3.27947 0.73733,0.0822 2.13561,0.0393 2.91979,-0.0895 3.71287,-0.60999 7.5763,-2.65233 10.26995,-5.4291 1.44337,-1.48791 2.377351,-2.90092 3.050141,-4.61462 l 0.16232,-0.41341 -0.0239,1.18117 c -0.016,0.79568 -0.0627,1.44136 -0.14307,1.97845 -0.75629,5.05737 -3.087501,8.337 -6.859321,9.6498 -1.03301,0.35956 -2.59355,0.62635 -3.66391,0.62635 h -0.41504 v 0.4036 c 0,0.22196 0.017,0.42129 0.0377,0.44294 0.0208,0.0217 5.22148,0.0393 11.557021,0.0393 h 11.51928 v -0.44294 -0.44293 h -0.43939 c -1.00897,0 -2.63738,-0.27864 -3.61676,-0.61885 -2.25485,-0.78327 -3.97463,-2.24584 -5.20634,-4.42799 -1.13364,-2.00829 -1.84693,-4.96923 -1.83887,-7.63363 l 0.002,-0.81436 0.19043,0.48446 c 0.6792,1.72879 1.68471,3.23278 3.13589,4.69017 2.8447,2.85706 6.72978,4.85771 10.43525,5.37385 0.83412,0.11618 2.51139,0.10183 3.25749,-0.0279 5.11727,-0.88984 9.07509,-5.35941 9.98039,-11.2708 0.0792,-0.51742 0.10233,-1.01184 0.10289,-2.20269 8e-4,-1.67967 -0.0514,-2.17726 -0.37498,-3.5661 -0.92082,-3.9529 -3.49372,-7.33879 -6.8009,-8.94989 -2.46049,-1.19864 -5.08088,-1.38305 -8.10146,-0.57004 -1.04419,0.28104 -2.47003,0.8198 -3.22418,1.21818 -0.15073,0.0796 -0.29083,0.14477 -0.31126,0.14477 -0.0204,0 0.10103,-0.1661 0.26987,-0.36912 1.04413,-1.25539 1.88086,-2.871 2.33203,-4.50319 1.06377,-3.84826 0.36709,-7.75926 -1.95461,-10.9732 -0.48146,-0.6665 -1.60376,-1.82226 -2.28511,-2.35322 -2.03935,-1.58923 -4.20547,-2.38112 -6.71714,-2.45554 z" />
  </g>
</svg>
